<svg width="128" height="128" viewBox="0 0 128 128" xmlns="http://www.w3.org/2000/svg">
  <defs>
    <linearGradient id="qalabGradient" x1="18" y1="12" x2="110" y2="116" gradientUnits="userSpaceOnUse">
      <stop stop-color="#00AEEF"></stop>
      <stop offset="1" stop-color="#38C7FF"></stop>
    </linearGradient>

    <linearGradient id="liquidGradient" x1="36" y1="78" x2="92" y2="106" gradientUnits="userSpaceOnUse">
      <stop stop-color="#EAF8FF"></stop>
      <stop offset="1" stop-color="#BEEFFF"></stop>
    </linearGradient>
  </defs>

  <rect width="128" height="128" rx="28" fill="#061826"></rect>

  <path d="M50 18h28v9h-7v27.4l27 43.4c4.3 6.9-.7 15.7-8.8 15.7H38.8c-8.1 0-13.1-8.8-8.8-15.7l27-43.4V27h-7v-9Z" fill="url(#qalabGradient)"></path>

  <path d="M47.5 84.5c8.8-8.2 23.2 8.2 33 0l10.7 17.2c1.8 2.9-.3 6.8-3.8 6.8H40.6c-3.5 0-5.6-3.9-3.8-6.8l10.7-17.2Z" fill="url(#liquidGradient)"></path>

  <path d="M57 27h14v27.8l25.5 41c3.4 5.4-.5 12.4-6.9 12.4H38.4c-6.4 0-10.3-7-6.9-12.4l25.5-41V27Z" fill="none" stroke="#EAF8FF" stroke-opacity="0.35" stroke-width="4"></path>

  <circle cx="55" cy="70" r="5" fill="#EAF8FF"></circle>
  <circle cx="75" cy="76" r="4.5" fill="#EAF8FF"></circle>
  <circle cx="65" cy="61" r="3.5" fill="#EAF8FF"></circle>
</svg>